<svg width="607" height="140" viewBox="0 0 607 140" fill="none" xmlns="http://www.w3.org/2000/svg">
<g filter="url(#filter0_d_0_1)">
<path d="M33.392 130.344C51.968 130.344 69.392 124.296 75.008 97.08L89.552 27.24H66.512L62.768 39.48H61.472C59.024 31.272 50.528 25.8 40.16 25.8C20 25.8 7.472 41.064 4.736 67.272C2.576 88.296 12.8 99.96 29.936 99.96C39.44 99.96 47.648 95.64 51.104 89.304H52.256L49.664 100.968C47.648 110.04 42.176 113.352 35.264 113.352C27.92 113.352 23.6 110.328 23.024 105.72H0.128C-0.0160001 120.408 13.376 130.344 33.392 130.344ZM41.456 81.96C34.832 81.96 28.208 78.072 29.648 65.976C31.088 51.864 36.992 44.232 47.072 44.232C55.568 44.232 60.32 50.856 58.448 59.928L56.864 67.56C55.136 75.768 49.952 81.96 41.456 81.96ZM125.87 106.44C151.07 106.44 167.63 88.584 168.638 60.36C169.358 37.896 155.39 25.8 134.222 25.8C109.166 25.8 92.6064 43.656 91.5984 71.88C90.7344 94.488 104.846 106.44 125.87 106.44ZM127.31 86.856C119.966 86.856 115.358 81.672 115.646 71.592C116.222 55.608 123.134 45.384 133.07 45.384C140.27 45.384 144.878 50.712 144.59 60.648C144.014 76.488 137.246 86.856 127.31 86.856ZM184.296 105H213.24L252.984 27.24H227.208L208.488 70.728L202.584 85.128H201.864L201.144 70.152L198.408 27.24H174.072L184.296 105ZM249.62 105H273.668L285.908 46.824H301.028L305.06 27.24H289.94L290.948 22.776C291.956 18.168 295.124 16.728 300.596 16.728H308.804L312.26 0.0239954H294.116C278.132 0.0239954 270.068 7.08 267.62 18.6L265.892 27.24H253.796L249.764 46.824H261.86L249.62 105ZM296.725 105H320.773L327.541 72.6C331.141 55.752 340.213 49.992 349.573 49.848C351.877 49.848 354.181 50.136 355.333 50.856L360.373 26.52C358.645 26.088 356.629 25.8 354.325 25.8C346.117 25.8 337.765 31.272 333.733 40.632H332.869L334.597 27.24H312.853L296.725 105ZM389.96 106.44C409.544 106.44 425.096 95.784 428.552 79.944H405.656C404.072 84.552 398.888 88.152 391.688 88.152C383.336 88.152 378.008 82.248 379.16 71.736H430.424C436.472 42.504 423.224 25.8 399.032 25.8C373.976 25.8 357.128 43.8 356.12 71.304C355.4 92.472 367.64 106.44 389.96 106.44ZM397.16 43.8C404.792 43.8 409.4 48.84 408.968 56.76H382.184C383.912 48.84 389.384 43.8 397.16 43.8ZM467.882 106.44C490.346 106.44 503.882 96.648 504.602 79.512C505.034 65.832 497.69 59.64 481.13 56.616C471.626 54.744 468.458 53.592 468.602 49.128C468.746 45.096 472.058 42.792 477.242 42.792C482.57 42.792 486.17 45.816 485.882 50.424H508.49C509.066 34.872 496.97 25.8 478.106 25.8C457.658 25.8 444.41 36.168 443.834 52.728C443.402 65.256 450.458 71.448 468.746 75.192C476.81 76.776 479.69 77.928 479.546 82.248C479.258 87.144 475.37 89.448 469.034 89.448C462.41 89.448 458.378 86.136 458.81 80.232H435.626C435.05 95.928 446.858 106.44 467.882 106.44ZM511.218 105H535.554L544.626 60.648C546.642 50.856 553.41 45.384 561.042 45.384C569.97 45.384 572.85 51.864 570.546 63.096L561.906 105H586.098L595.602 60.648C601.074 34.152 587.826 25.8 574.866 25.8C565.218 25.8 555.282 30.84 550.386 38.76H549.234L557.298 0.0239954H532.962L511.218 105Z" fill="white"/>
</g>
<defs>
<filter id="filter0_d_0_1" x="-0.0159912" y="0.0239868" width="611.09" height="140.32" filterUnits="userSpaceOnUse" color-interpolation-filters="sRGB">
<feFlood flood-opacity="0" result="BackgroundImageFix"/>
<feColorMatrix in="SourceAlpha" type="matrix" values="0 0 0 0 0 0 0 0 0 0 0 0 0 0 0 0 0 0 127 0" result="hardAlpha"/>
<feOffset dx="10" dy="10"/>
<feComposite in2="hardAlpha" operator="out"/>
<feColorMatrix type="matrix" values="0 0 0 0 1 0 0 0 0 1 0 0 0 0 1 0 0 0 0.2 0"/>
<feBlend mode="normal" in2="BackgroundImageFix" result="effect1_dropShadow_0_1"/>
<feBlend mode="normal" in="SourceGraphic" in2="effect1_dropShadow_0_1" result="shape"/>
</filter>
</defs>
</svg>
