<svg xmlns="http://www.w3.org/2000/svg" viewBox="-94 51 460 460">
  <style>
    path { fill: #1a1a1a; }
    @media (prefers-color-scheme: dark) { path { fill: #ffffff; } }
  </style>
  <path d="M272.5 129.5C255.167 136.5 229.667 140 196 140C213.333 147.333 226 156.333 234 167C242 177.667 246 191.5 246 208.5C246 225.5 241.5 240.833 232.5 254.5C223.5 267.833 210.5 278.333 193.5 286C176.833 293.667 157.167 297.5 134.5 297.5C123.833 297.5 113.667 296.5 104 294.5C101.333 295.833 99.1667 298 97.5 301C96.1667 303.667 95.5 306.5 95.5 309.5C95.5 314.5 97.3333 318.5 101 321.5C105 324.167 112.833 325.5 124.5 325.5H164.5C184.833 325.5 202.667 328.833 218 335.5C233.333 342.167 245.167 351.333 253.5 363C261.833 374.667 266 387.833 266 402.5C266 430.167 254 451.667 230 467C206.333 482.667 172 490.5 127 490.5C94.6667 490.5 69.1667 487 50.5 480C31.8333 473.333 18.6667 463.833 11 451.5C3.66667 439.167 0 423.667 0 405H71C71 413 72.5 419.333 75.5 424C78.8333 428.667 84.6667 432.167 93 434.5C101.333 436.833 113.333 438 129 438C150.667 438 165.667 435.333 174 430C182.333 425 186.5 417.667 186.5 408C186.5 400 183.333 393.667 177 389C170.667 384.333 161.167 382 148.5 382H110C82.6667 382 62.1667 377.167 48.5 367.5C35.1667 357.5 28.5 344.833 28.5 329.5C28.5 319.833 31.3333 310.5 37 301.5C42.6667 292.167 50.3333 284.5 60 278.5C43.3333 269.5 31.1667 259 23.5 247C16.1667 234.667 12.5 219.833 12.5 202.5C12.5 172.833 23.1667 149.333 44.5 132C65.8333 114.333 94 105.5 129 105.5C155.667 106.167 178.167 103.5 196.5 97.5C215.167 91.5 234.333 82.6667 254 71L272.5 129.5ZM131 157.5C118.667 157.5 108.833 161.5 101.5 169.5C94.5 177.167 91 187.833 91 201.5C91 215.833 94.5 227 101.5 235C108.833 242.667 118.667 246.5 131 246.5C144 246.5 153.833 242.667 160.5 235C167.5 227.333 171 215.833 171 200.5C171 171.833 157.667 157.5 131 157.5Z"/>
</svg>
